<svg width="12" height="16" viewBox="0 0 12 16" fill="none" xmlns="http://www.w3.org/2000/svg">
<path d="M8.24969 15.0024C8.27968 15.269 8.20469 15.5534 8.03222 15.7401C7.96284 15.8225 7.88044 15.8878 7.78972 15.9324C7.699 15.977 7.60175 16 7.50354 16C7.40533 16 7.30808 15.977 7.21736 15.9324C7.12665 15.8878 7.04424 15.8225 6.97486 15.7401L3.96778 12.1761C3.88599 12.0814 3.82381 11.9655 3.78608 11.8375C3.74835 11.7095 3.73611 11.573 3.75031 11.4384V6.88795L0.158309 1.4398C0.0365318 1.25452 -0.0184164 1.01965 0.00547091 0.786498C0.0293582 0.553349 0.130139 0.340884 0.285791 0.195529C0.428271 0.0711015 0.58575 0 0.750727 0H11.2493C11.4142 0 11.5717 0.0711015 11.7142 0.195529C11.8699 0.340884 11.9706 0.553349 11.9945 0.786498C12.0184 1.01965 11.9635 1.25452 11.8417 1.4398L8.24969 6.88795V15.0024ZM2.28051 1.77754L5.2501 6.2747V11.1807L6.7499 12.9582V6.26582L9.71948 1.77754H2.28051Z" fill="#99A6B7"/>
</svg>
